<svg width="157" height="63" viewBox="0 0 157 63" fill="none" xmlns="http://www.w3.org/2000/svg">
<path d="M22.132 29.218C22.132 27.8402 22.3689 26.6374 22.8427 25.6095C23.3391 24.5817 23.9933 23.7397 24.8055 23.0836C25.6178 22.4056 26.5428 21.9026 27.5806 21.5746C28.641 21.2466 29.7352 21.0825 30.8632 21.0825C31.698 21.0825 32.4989 21.2028 33.266 21.4434C34.0557 21.6621 34.7663 21.9573 35.3981 22.3291C36.0523 22.7009 36.6164 23.1492 37.0902 23.6741C37.5865 24.1989 37.97 24.7566 38.2408 25.3471C38.8499 25.369 39.4591 25.4674 40.0682 25.6423C40.5871 25.7954 41.1286 26.036 41.6927 26.364C42.2792 26.6702 42.8207 27.1185 43.3171 27.709C42.911 26.5937 42.3356 25.5658 41.5911 24.6254C40.8466 23.6631 39.978 22.843 38.9853 22.1651C38.0152 21.4871 36.9322 20.9623 35.7365 20.5905C34.5633 20.1968 33.3224 20 32.0139 20C30.3669 20 28.8102 20.3062 27.3437 20.9185C25.8772 21.5309 24.6025 22.3619 23.5196 23.4116C22.4366 24.4614 21.5793 25.697 20.9476 27.1185C20.3159 28.5182 20 30.0272 20 31.6455C20 33.242 20.3159 34.751 20.9476 36.1725C21.5793 37.594 22.4366 38.8296 23.5196 39.8794C24.6025 40.9291 25.8772 41.7601 27.3437 42.3725C28.8102 42.9848 30.3669 43.291 32.0139 43.291C33.2999 43.291 34.5182 43.1051 35.6688 42.7333C36.842 42.3616 37.9136 41.8476 38.8838 41.1915C39.8539 40.5354 40.7112 39.7591 41.4558 38.8624C42.2003 37.9439 42.7869 36.9379 43.2155 35.8444C42.9674 35.8444 42.7417 35.8554 42.5387 35.8772C42.3582 35.8772 42.2003 35.8882 42.0649 35.9101C41.9295 35.9101 41.8731 35.9101 41.8957 35.9101C41.6927 36.7411 41.3542 37.5284 40.8804 38.272C40.4292 39.0155 39.8652 39.6716 39.1884 40.2402C38.5115 40.8088 37.7219 41.2681 36.8194 41.618C35.917 41.946 34.913 42.1101 33.8075 42.1101C32.2959 42.1101 30.8294 41.7711 29.408 41.0931C28.0092 40.3933 26.7684 39.4638 25.6854 38.3048C24.6025 37.1238 23.7339 35.757 23.0796 34.2042C22.4479 32.6296 22.132 30.9675 22.132 29.218Z" fill="white"/>
<path d="M53.9794 29.8741C53.9794 29.5898 54.0019 29.2945 54.0471 28.9884C54.1147 28.6822 54.2163 28.4088 54.3516 28.1683C54.5096 27.9058 54.7126 27.6981 54.9608 27.545C55.2315 27.3919 55.5699 27.3153 55.976 27.3153C56.4498 27.3153 56.8221 27.4684 57.0928 27.7746C57.3636 28.0589 57.5666 28.4307 57.702 28.8899C57.8373 29.3492 57.9163 29.8741 57.9389 30.4646C57.9614 31.0332 57.9727 31.6127 57.9727 32.2032C57.9727 32.7937 58.1081 33.1545 58.3788 33.2857C58.6721 33.4169 58.9767 33.4279 59.2925 33.3185C59.631 33.2092 59.9355 33.0451 60.2063 32.8265C60.4996 32.5859 60.6462 32.4 60.6462 32.2688C60.6462 31.7002 60.556 31.0878 60.3755 30.4317C60.195 29.7538 59.913 29.1414 59.5294 28.5947C59.1459 28.0261 58.6608 27.5559 58.0742 27.1841C57.4876 26.8123 56.7882 26.6265 55.976 26.6265C54.8931 26.6265 53.923 26.9108 53.0656 27.4794C52.2309 28.0261 51.6443 28.8243 51.3059 29.8741H53.9794ZM59.2925 43.291H63.3197L63.1844 42.6677C63.0039 42.7771 62.8347 42.8645 62.6767 42.9302C62.5188 42.9958 62.327 43.0286 62.1014 43.0286C61.6502 43.0286 61.3005 42.8755 61.0523 42.5693C60.8042 42.2631 60.6801 41.8367 60.6801 41.2899C60.6801 40.9838 60.5221 40.8526 60.2063 40.8963C59.8904 40.94 59.5407 41.0166 59.1572 41.1259L59.2925 43.291ZM58.0066 43.291H60.6801V42.7005L60.6462 32.2688L57.9727 32.2032L58.0066 43.0614V43.291ZM46.0265 37.1566C46.0265 38.0095 46.1845 38.8078 46.5003 39.5513C46.8387 40.2949 47.29 40.951 47.854 41.5196C48.4406 42.0663 49.1174 42.5037 49.8845 42.8317C50.6516 43.1379 51.4751 43.291 52.355 43.291C53.2349 43.291 54.0583 43.1379 54.8254 42.8317C55.5925 42.5037 56.2581 42.0663 56.8221 41.5196C57.4087 40.951 57.8599 40.2949 58.1758 39.5513C58.5142 38.8078 58.6834 38.0095 58.6834 37.1566C58.6834 36.3037 58.5142 35.5055 58.1758 34.7619C57.8599 34.0183 57.4087 33.3732 56.8221 32.8265C56.2581 32.2578 55.5925 31.8205 54.8254 31.5143C54.0583 31.1862 53.2349 31.0222 52.355 31.0222C51.4751 31.0222 50.6516 31.1862 49.8845 31.5143C49.1174 31.8205 48.4406 32.2578 47.854 32.8265C47.29 33.3732 46.8387 34.0183 46.5003 34.7619C46.1845 35.5055 46.0265 36.3037 46.0265 37.1566ZM48.7 37.1238C48.7 36.5115 48.8128 35.9319 49.0385 35.3852C49.2866 34.8384 49.625 34.3683 50.0537 33.9746C50.4824 33.5591 50.9787 33.242 51.5428 33.0233C52.1068 32.7827 52.7047 32.6624 53.3364 32.6624C53.9907 32.6624 54.5885 32.7827 55.13 33.0233C55.694 33.242 56.1904 33.5591 56.619 33.9746C57.0477 34.3683 57.3748 34.8384 57.6005 35.3852C57.8486 35.9319 57.9727 36.5115 57.9727 37.1238C57.9727 37.7362 57.8486 38.3266 57.6005 38.8952C57.3748 39.442 57.0477 39.9231 56.619 40.3386C56.1904 40.7323 55.694 41.0494 55.13 41.2899C54.5885 41.5305 53.9907 41.6508 53.3364 41.6508C52.7047 41.6508 52.1068 41.5305 51.5428 41.2899C50.9787 41.0494 50.4824 40.7323 50.0537 40.3386C49.625 39.9231 49.2866 39.442 49.0385 38.8952C48.8128 38.3266 48.7 37.7362 48.7 37.1238Z" fill="white"/>
<path d="M67.9997 51H70.6732V50.4423V26.8561H67.9997V51ZM65.5292 27.4466C65.7097 27.3372 65.8789 27.2607 66.0369 27.2169C66.1948 27.1513 66.3753 27.1185 66.5783 27.1185C67.0296 27.1185 67.3793 27.2388 67.6274 27.4794C67.8756 27.7199 67.9997 28.1573 67.9997 28.7915H70.6732V26.8561H65.36L65.5292 27.4466ZM65.36 51H73.3129L73.1437 50.4095C72.9632 50.5189 72.794 50.5954 72.636 50.6392C72.4781 50.7048 72.2976 50.7376 72.0946 50.7376C71.711 50.7376 71.3726 50.6063 71.0793 50.3439C70.8086 50.1033 70.6732 49.6769 70.6732 49.0645C70.6732 48.7584 70.5378 48.6272 70.2671 48.6709C70.0189 48.7146 69.7031 48.7912 69.3195 48.9005C68.9585 48.7912 68.6427 48.7146 68.372 48.6709C68.1238 48.6272 67.9997 48.7584 67.9997 49.0645C67.9997 49.3489 67.9659 49.5894 67.8982 49.7862C67.8305 49.9831 67.7402 50.1471 67.6274 50.2783C67.4921 50.4533 67.3341 50.5735 67.1536 50.6392C66.9732 50.7048 66.7814 50.7376 66.5783 50.7376C66.3753 50.7376 66.1948 50.7048 66.0369 50.6392C65.8789 50.5954 65.7097 50.5189 65.5292 50.4095L65.36 51ZM76.8663 26.7577C75.7156 26.7577 74.7117 26.9654 73.8543 27.381C73.0196 27.7965 72.3202 28.376 71.7561 29.1196C71.2147 29.8631 70.7973 30.7489 70.504 31.7767C70.2333 32.7827 70.0979 33.8762 70.0979 35.0571C70.0979 36.3037 70.222 37.4409 70.4702 38.4688C70.7409 39.4748 71.147 40.3386 71.6885 41.0603C72.2525 41.782 72.9519 42.3506 73.7867 42.7661C74.644 43.1598 75.648 43.3566 76.7986 43.3566C79.2578 43.3566 81.1642 42.624 82.5179 41.1587C83.8941 39.6935 84.5822 37.6596 84.5822 35.0571C84.5822 32.4547 83.9618 30.4208 82.7209 28.9556C81.5026 27.4903 79.5511 26.7577 76.8663 26.7577ZM76.494 27.3481C77.3965 27.3481 78.1748 27.5559 78.8291 27.9714C79.4834 28.3869 80.0136 28.9556 80.4197 29.6772C80.8258 30.3771 81.1191 31.1972 81.2996 32.1376C81.5026 33.0561 81.5929 34.0293 81.5703 35.0571C81.5477 36.0413 81.4236 36.9926 81.198 37.9111C80.995 38.8296 80.6791 39.6497 80.2505 40.3714C79.8444 41.0931 79.3142 41.6727 78.6599 42.1101C78.0056 42.5474 77.2385 42.7661 76.3586 42.7661C75.5464 42.7661 74.7906 42.6131 74.0912 42.3069C73.4144 41.9788 72.8165 41.4977 72.2976 40.8635C71.8013 40.2074 71.4064 39.3982 71.1132 38.436C70.8199 37.4737 70.6732 36.3474 70.6732 35.0571C70.6732 33.9637 70.7973 32.9467 71.0455 32.0063C71.3162 31.066 71.6885 30.2568 72.1622 29.5788C72.6586 28.879 73.2678 28.3323 73.9897 27.9386C74.7117 27.545 75.5464 27.3481 76.494 27.3481Z" fill="white"/>
<path d="M89.3177 43.291H92.0251V42.7005V27.2497L89.3177 28.037V43.0614V43.291ZM86.6104 43.291H94.7324L94.5632 42.6677C94.3827 42.7771 94.2022 42.8645 94.0217 42.9302C93.8638 42.9958 93.6833 43.0286 93.4803 43.0286C93.029 43.0286 92.6681 42.8755 92.3973 42.5693C92.1491 42.2631 92.0251 41.8367 92.0251 41.2899C92.0251 40.9838 91.8897 40.8526 91.619 40.8963C91.3482 40.94 91.0211 41.0166 90.6375 41.1259C90.254 41.0166 89.9381 40.94 89.69 40.8963C89.4418 40.8526 89.3177 40.9838 89.3177 41.2899C89.3177 41.5961 89.2726 41.8476 89.1823 42.0444C89.1147 42.2194 89.0244 42.3834 88.9116 42.5365C88.7537 42.7115 88.5957 42.8427 88.4378 42.9302C88.2799 42.9958 88.0881 43.0286 87.8625 43.0286C87.6369 43.0286 87.4451 42.9958 87.2872 42.9302C87.1293 42.8645 86.9601 42.7771 86.7796 42.6677L86.6104 43.291ZM92.0251 26.8889C90.9872 27.4794 89.9833 27.873 89.0131 28.0698C88.043 28.2667 87.2533 28.3651 86.6442 28.3651L86.7796 28.8899C86.8924 28.8462 87.0165 28.8025 87.1518 28.7587C87.3098 28.6931 87.5128 28.6603 87.761 28.6603C88.2122 28.6603 88.5845 28.8353 88.8778 29.1852C89.1711 29.5132 89.3177 30.0162 89.3177 30.6942C89.4531 30.5192 89.6448 30.3115 89.893 30.0709C90.1412 29.8085 90.4007 29.546 90.6714 29.2836C90.9421 29.0212 91.2016 28.7806 91.4498 28.5619C91.6979 28.3213 91.8897 28.1354 92.0251 28.0042V26.8889ZM92.0251 32.3672C92.0251 31.5799 92.1379 30.9019 92.3635 30.3333C92.5891 29.7647 92.8824 29.2945 93.2434 28.9228C93.6043 28.551 94.0105 28.2776 94.4617 28.1026C94.9129 27.9277 95.3528 27.8402 95.7815 27.8402C96.7742 27.8402 97.5526 28.1355 98.1166 28.7259C98.6806 29.2945 99.0191 30.1037 99.1319 31.1534L101.67 30.3005C101.354 29.2508 100.756 28.4198 99.8764 27.8074C98.9965 27.1732 97.8459 26.8561 96.4245 26.8561C95.9507 26.8561 95.4656 26.9326 94.9693 27.0857C94.4955 27.2169 94.0556 27.4247 93.6495 27.709C93.2659 27.9933 92.9275 28.3432 92.6342 28.7587C92.3409 29.1524 92.1379 29.6007 92.0251 30.1037V32.3672Z" fill="white"/>
<path d="M103.697 26.8561L103.866 27.4466C104.046 27.3372 104.215 27.2607 104.373 27.2169C104.531 27.1513 104.712 27.1185 104.915 27.1185C105.366 27.1185 105.716 27.2716 105.964 27.5778C106.212 27.8621 106.336 28.2667 106.336 28.7915V29.2508V41.3228C106.336 41.6071 106.302 41.8476 106.235 42.0444C106.167 42.2413 106.077 42.4053 105.964 42.5365C105.829 42.7115 105.671 42.8317 105.49 42.8974C105.31 42.963 105.118 42.9958 104.915 42.9958C104.712 42.9958 104.531 42.9739 104.373 42.9302C104.215 42.8645 104.046 42.7771 103.866 42.6677L103.697 43.2582H111.649L111.48 42.6677C111.3 42.7771 111.13 42.8645 110.973 42.9302C110.815 42.9739 110.634 42.9958 110.431 42.9958C110.048 42.9958 109.709 42.8755 109.416 42.6349C109.145 42.3725 109.01 41.9351 109.01 41.3228V28.7915C109.01 28.2667 109.134 27.8621 109.382 27.5778C109.63 27.2716 109.98 27.1185 110.431 27.1185C110.634 27.1185 110.815 27.1513 110.973 27.2169C111.13 27.2607 111.3 27.3372 111.48 27.4466L111.649 26.8561H103.697ZM105.761 24.6582C105.761 25.1612 105.953 25.5986 106.336 25.9704C106.72 26.3422 107.171 26.528 107.69 26.528C108.209 26.528 108.66 26.3422 109.044 25.9704C109.427 25.5986 109.619 25.1612 109.619 24.6582C109.619 24.1552 109.427 23.7178 109.044 23.346C108.66 22.9743 108.209 22.7884 107.69 22.7884C107.171 22.7884 106.72 22.9743 106.336 23.346C105.953 23.7178 105.761 24.1552 105.761 24.6582Z" fill="white"/>
<path d="M117.535 38.0423C116.904 37.1457 116.418 36.249 116.08 35.3524C115.742 34.4339 115.572 33.57 115.572 32.7608C115.595 31.9298 115.787 31.1644 116.148 30.4646C116.509 29.7429 117.073 29.1414 117.84 28.6603C118.494 28.2448 119.16 27.9933 119.836 27.9058C120.513 27.8183 121.201 27.873 121.901 28.0698C122.6 28.2448 123.288 28.551 123.965 28.9884C124.642 29.4257 125.285 29.9725 125.894 30.6286C126.142 30.6286 126.402 30.6395 126.673 30.6614C126.876 30.6832 127.112 30.727 127.383 30.7926C127.677 30.8582 127.959 30.9457 128.229 31.055C128.861 31.3175 129.369 31.6018 129.752 31.9079C130.158 32.2141 130.35 32.3453 130.327 32.3016C130.012 31.5143 129.583 30.7817 129.041 30.1037C128.523 29.4257 127.913 28.8462 127.214 28.3651C126.515 27.8621 125.736 27.4684 124.879 27.1841C124.044 26.8998 123.164 26.7577 122.239 26.7577C121.066 26.7577 119.961 26.9764 118.923 27.4138C117.885 27.8511 116.971 28.4526 116.182 29.218C115.414 29.9616 114.805 30.8363 114.354 31.8423C113.903 32.8483 113.677 33.9199 113.677 35.0571C113.677 36.1944 113.903 37.266 114.354 38.272C114.805 39.278 115.414 40.1637 116.182 40.9291C116.971 41.6727 117.885 42.2631 118.923 42.7005C119.961 43.1379 121.066 43.3566 122.239 43.3566C123.142 43.3566 124.01 43.2254 124.845 42.963C125.68 42.7005 126.447 42.3397 127.146 41.8804C127.868 41.3993 128.489 40.8416 129.008 40.2074C129.549 39.5513 129.966 38.8296 130.26 38.0423H128.838C128.748 38.7203 128.534 39.3436 128.195 39.9122C127.88 40.4808 127.406 40.9728 126.774 41.3884C126.03 41.8695 125.24 42.1429 124.405 42.2085C123.593 42.2522 122.781 42.121 121.969 41.8148C121.156 41.4868 120.367 41.0056 119.6 40.3714C118.855 39.7153 118.167 38.939 117.535 38.0423Z" fill="white"/>
<path d="M134.279 32.9249C134.279 32.2032 134.425 31.5252 134.719 30.891C135.012 30.2568 135.407 29.6991 135.903 29.218C136.422 28.7369 137.02 28.3651 137.697 28.1026C138.396 27.8183 139.152 27.6762 139.964 27.6762C140.641 27.6762 141.307 27.7855 141.961 28.0042C142.615 28.2229 143.202 28.54 143.721 28.9556C144.24 29.3711 144.68 29.8631 145.04 30.4317C145.424 30.9785 145.672 31.6018 145.785 32.3016C146.394 32.3235 146.936 32.3344 147.409 32.3344C147.793 32.3344 148.154 32.3344 148.492 32.3344C148.831 32.3344 149 32.3235 149 32.3016C148.842 31.5143 148.538 30.7817 148.086 30.1037C147.658 29.4257 147.094 28.8462 146.394 28.3651C145.717 27.8621 144.916 27.4684 143.991 27.1841C143.066 26.8998 142.04 26.7577 140.912 26.7577C139.739 26.7577 138.633 26.9764 137.595 27.4138C136.557 27.8511 135.644 28.4526 134.854 29.218C134.087 29.9616 133.478 30.8363 133.027 31.8423C132.575 32.8483 132.35 33.9199 132.35 35.0571C132.35 36.1944 132.575 37.266 133.027 38.272C133.478 39.278 134.087 40.1637 134.854 40.9291C135.644 41.6727 136.557 42.2631 137.595 42.7005C138.633 43.1379 139.739 43.3566 140.912 43.3566C141.814 43.3566 142.683 43.2254 143.518 42.963C144.352 42.7005 145.119 42.3397 145.819 41.8804C146.541 41.3993 147.161 40.8416 147.68 40.2074C148.222 39.5513 148.639 38.8296 148.932 38.0423H147.545C147.206 39.4201 146.552 40.4589 145.582 41.1587C144.612 41.8367 143.416 42.1757 141.995 42.1757C141.092 42.1757 140.179 41.9351 139.254 41.454C138.351 40.951 137.528 40.284 136.783 39.4529C136.039 38.6 135.429 37.6159 134.956 36.5005C134.504 35.3852 134.279 34.1933 134.279 32.9249ZM133.67 32.3016H149L148.526 31.6127H133.67V32.3016Z" fill="white"/>
<path d="M48.4905 13.9829C48.6936 13.7799 48.6939 13.4502 48.4868 13.2512C44.909 9.81368 40.4191 7.46897 35.5458 6.49959C30.5023 5.49638 25.2745 6.01127 20.5236 7.97915C15.7727 9.94703 11.7121 13.2795 8.85518 17.5552C5.99826 21.8309 4.47339 26.8577 4.47339 32C4.47339 37.1424 5.99827 42.1692 8.85519 46.4449C11.7121 50.7206 15.7728 54.053 20.5236 56.0209C25.2745 57.9888 30.5023 58.5037 35.5458 57.5005C40.4191 56.5311 44.909 54.1864 48.4868 50.7488C48.6939 50.5499 48.6936 50.2202 48.4905 50.0171C48.2874 49.8141 47.9585 49.8145 47.7513 50.0133C44.319 53.3055 40.0145 55.5512 35.3429 56.4805C30.5011 57.4435 25.4825 56.9493 20.9216 55.0601C16.3608 53.1709 12.4626 49.9717 9.71992 45.8671C6.97727 41.7624 5.51339 36.9367 5.51339 32C5.51339 27.0634 6.97727 22.2376 9.71991 18.133C12.4626 14.0283 16.3608 10.8292 20.9216 8.93998C25.4825 7.05082 30.5011 6.55653 35.3429 7.51961C40.0145 8.44886 44.319 10.6946 47.7513 13.9868C47.9585 14.1856 48.2874 14.186 48.4905 13.9829Z" fill="#7D7CCC"/>
<path d="M47.1015 15.3722C47.1942 15.2794 47.1943 15.1289 47.1006 15.037C43.8046 11.8063 39.6374 9.60455 35.1074 8.70349C30.4998 7.78697 25.7238 8.25736 21.3835 10.0552C17.0432 11.853 13.3335 14.8975 10.7235 18.8037C8.11343 22.7099 6.72034 27.3023 6.72034 32.0002C6.72034 36.6981 8.11343 41.2905 10.7235 45.1967C13.3335 49.1029 17.0432 52.1474 21.3835 53.9452C25.7238 55.743 30.4998 56.2134 35.1075 55.2969C39.6374 54.3958 43.8046 52.194 47.1006 48.9633C47.1943 48.8715 47.1942 48.721 47.1015 48.6282C47.0087 48.5354 46.8584 48.5356 46.7647 48.6274C43.5352 51.7917 39.4526 53.9482 35.0148 54.831C30.4993 55.7291 25.8188 55.2682 21.5653 53.5063C17.3118 51.7444 13.6763 48.7608 11.1185 44.9328C8.56063 41.1047 7.1954 36.6042 7.1954 32.0002C7.1954 27.3962 8.56063 22.8957 11.1185 19.0676C13.6763 15.2395 17.3118 12.2559 21.5653 10.4941C25.8188 8.73222 30.4993 8.27123 35.0148 9.16942C39.4526 10.0522 43.5351 12.2087 46.7646 15.373C46.8584 15.4648 47.0087 15.4649 47.1015 15.3722Z" fill="#7D7CCC"/>
<path d="M45.8304 16.6431C45.873 16.6004 45.873 16.5313 45.8302 16.4889C42.7894 13.4783 38.93 11.4274 34.7317 10.5923C30.4976 9.75006 26.1089 10.1823 22.1205 11.8344C18.1321 13.4864 14.7232 16.2841 12.3248 19.8735C9.92638 23.463 8.64624 27.683 8.64624 32C8.64624 36.3171 9.92638 40.5371 12.3248 44.1266C14.7232 47.716 18.1321 50.5137 22.1205 52.1657C26.1089 53.8178 30.4976 54.25 34.7317 53.4078C38.9301 52.5727 42.7894 50.5217 45.8302 47.5112C45.873 47.4688 45.873 47.3996 45.8304 47.357C45.7878 47.3144 45.7187 47.3145 45.6758 47.3569C42.6656 50.3369 38.8451 52.3671 34.6891 53.1937C30.4974 54.0275 26.1526 53.5996 22.2041 51.9641C18.2555 50.3285 14.8807 47.5589 12.5063 44.0053C10.1319 40.4517 8.86451 36.2739 8.86451 32C8.86451 27.7262 10.1319 23.5483 12.5063 19.9948C14.8807 16.4412 18.2555 13.6715 22.204 12.036C26.1526 10.4005 30.4974 9.97256 34.6891 10.8063C38.8451 11.633 42.6655 13.6632 45.6758 16.6432C45.7187 16.6856 45.7878 16.6857 45.8304 16.6431Z" fill="#7D7CCC"/>
</svg>
